:SAMPLES-PER-SECOND 30
:FULLY-SPECIFIED
:DEGREES
384
root  -26.5798 39.4086 -0.485735 165.368 -83.4885 -169.8
RightUpLeg  -6.95602 -14.2741 1.4736
RightLeg  29.8264 -3.90794 -2.66766
RightFoot  -15.8328 -0.275194 -4.28213
RightToes  0.000482159 0.542163 -0.142577
Spine  22.414 -0.669884 8.08081
Spine1  13.907 0.716266 0.181522
HEad  -3.91599 0.0379811 -0.868367
LeftShoulder1  10.1894 -15.8793 -45.8386
LeftArm  -11.1262 -3.20768 -17.6738
LeftForeArm  14.6382 -65.7561 -24.654
LeftHand  -0.25398 0.0180481 5.50724
RightShoulder  6.12381 11.172 35.7485
RightArm  -10.4554 -11.7679 22.7657
RightForeArm  6.63594 76.894 70.1988
RightHand  0.0356968 -5.81613 -16.6496
LeftUpLeg  -19.0842 8.7382 6.06686
LeftLeg  2.0507 17.3768 -4.70043
LeftFoot  3.21266 0.73289 -5.84832
LeftToes  1.06246e-005 4.65854e-005 -8.18503e-006
385
root  -27.7706 39.1788 -0.207711 163.251 -82.3544 -167.61
RightUpLeg  -6.21782 -13.0285 1.05586
RightLeg  32.2811 -4.22656 -3.12665
RightFoot  -17.8338 -0.271576 -2.80033
RightToes  0.000482159 0.542163 -0.142577
Spine  23.2252 -0.732785 7.5974
Spine1  14.2811 0.73973 -0.0159714
HEad  -3.91245 0.910998 -0.599172
LeftShoulder1  10.24 -15.9751 -45.8398
LeftArm  -12.2302 -3.30436 -17.618
LeftForeArm  13.5327 -64.5685 -23.2619
LeftHand  -0.25398 0.0180481 5.50724
RightShoulder  6.24665 11.3772 35.9927
RightArm  -9.444 -8.59488 22.679
RightForeArm  -2.65715 75.8117 59.9878
RightHand  -0.0228873 -5.39934 -16.3221
LeftUpLeg  -18.0534 6.86391 6.64929
LeftLeg  -2.77066 19.3697 -6.68673
LeftFoot  5.83141 0.774369 -5.4498
LeftToes  1.06246e-005 4.65854e-005 -8.18503e-006
386
root  -28.8644 38.8806 0.0832709 161.931 -81.8216 -166.291
RightUpLeg  -6.9758 -12.1539 0.251239
RightLeg  37.177 -3.90518 -3.42829
RightFoot  -18.4977 -0.0385125 1.54847
RightToes  0.000482159 0.542163 -0.142577
Spine  24.8455 -0.773985 6.09034
Spine1  14.2375 0.263297 0.852515
HEad  -4.40865 1.6448 -0.249818
LeftShoulder1  10.3658 -16.0148 -46.3225
LeftArm  -13.3293 -4.03332 -17.1143
LeftForeArm  12.1243 -63.0079 -21.6439
LeftHand  -0.25398 0.0180481 5.50724
RightShoulder  6.32754 11.5325 36.0942
RightArm  -8.30673 -4.8554 22.5347
RightForeArm  -10.9237 74.168 50.4846
RightHand  -0.0859919 -4.9175 -15.5284
LeftUpLeg  -19.3909 7.62413 5.81702
LeftLeg  0.379069 17.073 -6.00519
LeftFoot  11.4084 0.102464 -0.962535
LeftToes  1.06246e-005 4.65854e-005 -8.18503e-006
387
root  -29.8179 38.5529 0.383385 163.061 -81.7982 -167.45
RightUpLeg  -10.4505 -12.1984 -1.13934
RightLeg  45.8929 -3.09941 -3.76494
RightFoot  -14.8952 0.0657683 5.61431
RightToes  0.000482159 0.542163 -0.142577
Spine  27.3849 -0.614572 4.24602
Spine1  13.7105 -0.358673 2.28747
HEad  -5.72261 2.04877 0.0583509
LeftShoulder1  10.6287 -16.2718 -46.8948
LeftArm  -14.3741 -5.84172 -16.3625
LeftForeArm  10.3875 -60.9498 -19.7954
LeftHand  -0.25398 0.0180481 5.50724
RightShoulder  6.3728 11.6473 36.0736
RightArm  -7.63815 -0.782406 22.5285
RightForeArm  -17.0773 72.0461 42.4134
RightHand  -0.169073 -4.18415 -14.3208
LeftUpLeg  -22.2053 12.0008 2.9898
LeftLeg  6.87628 10.2274 -4.32076
LeftFoot  15.9606 -1.16262 4.45234
LeftToes  1.06246e-005 4.65854e-005 -8.18503e-006
388
root  -30.5772 38.2982 0.700995 170.338 -81.9306 -174.684
RightUpLeg  -16.2661 -12.8599 -3.3038
RightLeg  56.2559 -2.7638 -4.91996
RightFoot  -6.24481 -0.271723 5.79149
RightToes  0.000482159 0.542163 -0.142577
Spine  30.6273 -0.408216 2.58804
Spine1  13.6324 -0.568608 2.4997
HEad  -7.92944 2.07747 0.0713088
LeftShoulder1  10.9135 -16.9069 -46.6469
LeftArm  -15.5456 -8.98231 -16.1898
LeftForeArm  8.71814 -58.2707 -17.7287
LeftHand  -0.25398 0.0180481 5.50724
RightShoulder  6.41493 11.8151 35.8918
RightArm  -8.0039 3.67308 22.886
RightForeArm  -21.8739 69.2837 35.2821
RightHand  -0.251798 -3.28378 -12.948
LeftUpLeg  -25.8542 20.9097 -3.25266
LeftLeg  13.2969 0.00290251 -2.13569
LeftFoot  15.588 -1.90763 7.57911
LeftToes  1.06246e-005 4.65854e-005 -8.18503e-006
389
root  -31.1636 38.1845 1.04842 -179.043 -81.6245 175.132
RightUpLeg  -22.8309 -13.5078 -5.43768
RightLeg  64.0325 -2.45037 -6.04504
RightFoot  2.50643 -0.354584 3.04411
RightToes  0.000482159 0.542163 -0.142577
Spine  33.9094 -0.400515 1.72727
Spine1  14.4239 -0.190631 0.849355
HEad  -10.7861 1.58711 -0.424541
LeftShoulder1  11.0981 -17.725 -45.5661
LeftArm  -16.8516 -13.5706 -16.7526
LeftForeArm  7.23842 -54.6369 -15.3894
LeftHand  -0.25398 0.0180481 5.50724
RightShoulder  6.43461 12.0954 35.2775
RightArm  -9.28158 8.6818 23.4596
RightForeArm  -26.1376 65.6156 28.8495
RightHand  -0.315629 -2.35227 -11.5854
LeftUpLeg  -28.5501 25.3084 -7.97875
LeftLeg  17.1674 -3.63485 -1.21091
LeftFoot  12.6417 -1.99082 8.98101
LeftToes  1.06246e-005 4.65854e-005 -8.18503e-006
390
root  -31.6686 38.2269 1.41301 -174.18 -80.8694 171.417
RightUpLeg  -28.821 -14.0114 -5.98167
RightLeg  67.0182 -1.86247 -5.53841
RightFoot  5.93367 -0.100625 0.862889
RightToes  0.000482159 0.542163 -0.142577
Spine  36.8804 -0.651226 2.38088
Spine1  15.1456 0.543565 -1.17881
HEad  -13.7052 0.478026 -1.06322
LeftShoulder1  11.2317 -18.4836 -44.4696
LeftArm  -18.0835 -19.1835 -17.4294
LeftForeArm  5.8252 -49.9811 -12.9684
LeftHand  -0.25398 0.0180481 5.50724
RightShoulder  6.41849 12.4476 34.2776
RightArm  -10.8616 14.1443 23.5703
RightForeArm  -29.6438 61.1178 23.4498
RightHand  -0.361987 -1.37613 -10.2613
LeftUpLeg  -29.8613 26.6366 -10.0705
LeftLeg  18.201 -4.06717 -1.2422
LeftFoot  11.2165 -2.06931 9.99472
LeftToes  1.06246e-005 4.65854e-005 -8.18503e-006
